{
  "accessors": [
    {
      "bufferView": 2,
      "componentType": 5126,
      "count": 4949,
      "max": [
        0.81453537940979,
        0.059504177421331406,
        0.8809396028518677
      ],
      "min": [
        -0.8144824504852295,
        -0.01966600865125656,
        -0.7884029746055603
      ],
      "type": "VEC3"
    },
    {
      "bufferView": 2,
      "byteOffset": 59388,
      "componentType": 5126,
      "count": 4949,
      "max": [
        1.0,
        1.0,
        0.9999982118606567
      ],
      "min": [
        -0.9999568462371826,
        -1.0,
        -0.9999971389770508
      ],
      "type": "VEC3"
    },
    {
      "bufferView": 1,
      "componentType": 5126,
      "count": 4949,
      "max": [
        0.907267689704895,
        0.9404698014259338
      ],
      "min": [
        0.09275877475738525,
        0.10579848289489746
      ],
      "type": "VEC2"
    },
    {
      "bufferView": 0,
      "componentType": 5125,
      "count": 8934,
      "type": "SCALAR"
    },
    {
      "bufferView": 2,
      "byteOffset": 118776,
      "componentType": 5126,
      "count": 999,
      "max": [
        0.44089558720588684,
        0.059504177421331406,
        0.7124096155166626
      ],
      "min": [
        -0.4366239011287689,
        -0.01966600865125656,
        -0.6196595430374146
      ],
      "type": "VEC3"
    },
    {
      "bufferView": 2,
      "byteOffset": 130764,
      "componentType": 5126,
      "count": 999,
      "max": [
        0.5171111226081848,
        1.0,
        0.8857239484786987
      ],
      "min": [
        -0.5535920858383179,
        0.0,
        -0.8757891654968262
      ],
      "type": "VEC3"
    },
    {
      "bufferView": 1,
      "byteOffset": 39592,
      "componentType": 5126,
      "count": 999,
      "max": [
        0.720556914806366,
        0.8562141060829163
      ],
      "min": [
        0.2814272344112396,
        0.19016265869140625
      ],
      "type": "VEC2"
    },
    {
      "bufferView": 0,
      "byteOffset": 35736,
      "componentType": 5125,
      "count": 2961,
      "type": "SCALAR"
    }
  ],
  "asset": {
    "extras": {
      "author": "neosearch (https://sketchfab.com/neosearch)",
      "license": "CC-BY-4.0 (http://creativecommons.org/licenses/by/4.0/)",
      "source": "https://sketchfab.com/3d-models/circuit-de-monaco-f1-77a7a29b4f5b4380970828e3f724e62f",
      "title": "Circuit de Monaco F1"
    },
    "generator": "Sketchfab-16.73.0",
    "version": "2.0"
  },
  "bufferViews": [
    {
      "buffer": 0,
      "byteLength": 47580,
      "name": "floatBufferViews",
      "target": 34963
    },
    {
      "buffer": 0,
      "byteLength": 47584,
      "byteOffset": 47580,
      "byteStride": 8,
      "name": "floatBufferViews",
      "target": 34962
    },
    {
      "buffer": 0,
      "byteLength": 142752,
      "byteOffset": 95164,
      "byteStride": 12,
      "name": "floatBufferViews",
      "target": 34962
    }
  ],
  "buffers": [
    {
      "byteLength": 237916,
      "uri": "scene.bin"
    }
  ],
  "materials": [
    {
      "doubleSided": true,
      "name": "Material.001",
      "pbrMetallicRoughness": {
        "baseColorFactor": [
          0.800023,
          0.592707,
          0.362625,
          1.0
        ],
        "metallicFactor": 0.0,
        "roughnessFactor": 0.5
      }
    },
    {
      "doubleSided": true,
      "name": "Material.002",
      "pbrMetallicRoughness": {
        "baseColorFactor": [
          0.0,
          0.0,
          0.0,
          1.0
        ],
        "metallicFactor": 0.43038,
        "roughnessFactor": 0.28481
      }
    }
  ],
  "meshes": [
    {
      "name": "Object_0",
      "primitives": [
        {
          "attributes": {
            "NORMAL": 1,
            "POSITION": 0,
            "TEXCOORD_0": 2
          },
          "indices": 3,
          "material": 0,
          "mode": 4
        }
      ]
    },
    {
      "name": "Object_1",
      "primitives": [
        {
          "attributes": {
            "NORMAL": 5,
            "POSITION": 4,
            "TEXCOORD_0": 6
          },
          "indices": 7,
          "material": 1,
          "mode": 4
        }
      ]
    }
  ],
  "nodes": [
    {
      "children": [
        1
      ],
      "matrix": [
        1.0,
        0.0,
        0.0,
        0.0,
        0.0,
        2.220446049250313e-16,
        -1.0,
        0.0,
        0.0,
        1.0,
        2.220446049250313e-16,
        0.0,
        0.0,
        0.0,
        0.0,
        1.0
      ],
      "name": "Sketchfab_model"
    },
    {
      "children": [
        2
      ],
      "name": "root"
    },
    {
      "children": [
        3
      ],
      "matrix": [
        1.0,
        0.0,
        0.0,
        0.0,
        0.0,
        2.220446049250313e-16,
        1.0,
        0.0,
        0.0,
        -1.0,
        2.220446049250313e-16,
        0.0,
        0.0,
        0.0,
        0.0,
        1.0
      ],
      "name": "GLTF_SceneRootNode"
    },
    {
      "children": [
        4,
        5
      ],
      "matrix": [
        1.9508506059646606,
        0.0,
        0.0,
        0.0,
        0.0,
        1.0,
        0.0,
        0.0,
        0.0,
        0.0,
        3.3525781631469727,
        0.0,
        2.220677614212036,
        0.0,
        0.7715874910354614,
        1.0
      ],
      "name": "Plane_1"
    },
    {
      "mesh": 0,
      "name": "Object_4"
    },
    {
      "mesh": 1,
      "name": "Object_5"
    }
  ],
  "scene": 0,
  "scenes": [
    {
      "name": "Sketchfab_Scene",
      "nodes": [
        0
      ]
    }
  ]
}
